<svg
    width="300"
    height="100"
    viewBox="0 0 300 100"
    xmlns="http://www.w3.org/2000/svg"
>
  <!-- 背景の角丸長方形（YouTubeロゴの外枠イメージ） -->
  <rect
      x="0"
      y="0"
      width="00"
      height="80"
      rx="15"
      ry="15"
      fill="#f00"
  />

  <rect
      x="0"
      y="0"
      width="20"
      height="20"
      rx="15"
      ry="15"
      fill="#f00"
  />

  <rect
      x="20"
      y="0"
      width="20"
      height="20"
      rx="15"
      ry="15"
      fill="#f00"
  />
  <rect
      x="40"
      y="0"
      width="20"
      height="20"
      rx="15"
      ry="15"
      fill="#f00"
  />
  <rect
      x="40"
      y="20"
      width="20"
      height="20"
      rx="15"
      ry="15"
      fill="#f00"
  />
  <rect
      x="20"
      y="40"
      width="20"
      height="20"
      rx="15"
      ry="15"
      fill="#f00"
  />
  <rect
      x="40"
      y="40"
      width="20"
      height="20"
      rx="15"
      ry="15"
      fill="#f00"
  />
  <rect
      x="40"
      y="60"
      width="20"
      height="20"
      rx="15"
      ry="15"
      fill="#f00"
  />
  <rect
      x="0"
      y="80"
      width="20"
      height="20"
      rx="15"
      ry="15"
      fill="#f00"
  />
  <rect
      x="20"
      y="80"
      width="20"
      height="20"
      rx="15"
      ry="15"
      fill="#f00"
  />
  <rect
      x="40"
      y="80"
      width="20"
      height="20"
      rx="15"
      ry="15"
      fill="#f00"
  />

  <rect
      x="80"
      y="0"
      width="20"
      height="20"
      rx="15"
      ry="15"
      fill="#f00"
  />
  <rect
      x="100"
      y="0"
      width="20"
      height="20"
      rx="15"
      ry="15"
      fill="#f00"
  />
  <rect
      x="120"
      y="0"
      width="20"
      height="20"
      rx="15"
      ry="15"
      fill="#f00"
  />
  <rect
      x="80"
      y="20"
      width="20"
      height="20"
      rx="15"
      ry="15"
      fill="#f00"
  />
  <rect
      x="80"
      y="40"
      width="20"
      height="20"
      rx="15"
      ry="15"
      fill="#f00"
  />
  <rect
      x="100"
      y="40"
      width="20"
      height="20"
      rx="15"
      ry="15"
      fill="#f00"
  />
  <rect
      x="120"
      y="40"
      width="20"
      height="20"
      rx="15"
      ry="15"
      fill="#f00"
  />
  <rect
      x="120"
      y="60"
      width="20"
      height="20"
      rx="15"
      ry="15"
      fill="#f00"
  />
  <rect
      x="80"
      y="80"
      width="20"
      height="20"
      rx="15"
      ry="15"
      fill="#f00"
  />
  <rect
      x="100"
      y="80"
      width="20"
      height="20"
      rx="15"
      ry="15"
      fill="#f00"
  />
  <rect
      x="120"
      y="80"
      width="20"
      height="20"
      rx="15"
      ry="15"
      fill="#f00"
  />


  <!-- テキスト（"35Tube"） -->
  <text
      x="220"
      y="58"
      font-size="70"
      font-family="Arial, sans-serif"
      dominant-baseline="middle"
      text-anchor="middle"
  >
    Tube
  </text>
</svg>
